<?xml version="1.0" encoding="UTF-8" standalone="no"?>
<!-- Created with Inkscape (http://www.inkscape.org/) -->

<svg
   version="1.1"
   id="svg1"
   width="960"
   height="720"
   viewBox="0 0 960 720"
   sodipodi:docname="twin-wicks_black.svg"
   inkscape:version="1.4.2 (f4327f4, 2025-05-13)"
   xmlns:inkscape="http://www.inkscape.org/namespaces/inkscape"
   xmlns:sodipodi="http://sodipodi.sourceforge.net/DTD/sodipodi-0.dtd"
   xmlns="http://www.w3.org/2000/svg"
   xmlns:svg="http://www.w3.org/2000/svg">
  <defs
     id="defs1" />
  <sodipodi:namedview
     id="namedview1"
     pagecolor="#505050"
     bordercolor="#ffffff"
     borderopacity="1"
     inkscape:showpageshadow="0"
     inkscape:pageopacity="0"
     inkscape:pagecheckerboard="1"
     inkscape:deskcolor="#505050"
     inkscape:zoom="1.0736111"
     inkscape:cx="480.15524"
     inkscape:cy="360"
     inkscape:window-width="1920"
     inkscape:window-height="991"
     inkscape:window-x="-9"
     inkscape:window-y="-9"
     inkscape:window-maximized="1"
     inkscape:current-layer="g1" />
  <g
     inkscape:groupmode="layer"
     inkscape:label="Image"
     id="g1">
    <path
       style="fill:#000000"
       d="m 622.07378,617.4046 c -12.0835,-3.9848 -17.05749,-13.24686 -16.11481,-30.0074 0.31907,-5.67311 1.09877,-9.39007 2.65075,-12.63654 5.06408,-10.59323 19.33516,-14.72893 34.83028,-10.09366 3.32291,0.99402 3.6,1.35214 3.6,4.65267 v 3.57576 l -4.08,-1.48457 c -6.19131,-2.25279 -17.69528,-2.08624 -21.80803,0.31574 -5.78059,3.37605 -7.23197,7.12361 -7.23197,18.6734 0,8.37067 0.32931,10.64978 1.94196,13.44 3.9916,6.9063 13.88602,9.33533 25.41804,6.24 2.904,-0.77947 5.388,-1.42234 5.52,-1.42861 0.132,-0.006 0.24,1.45835 0.24,3.2547 0,2.81083 -0.43489,3.42508 -3.12,4.40676 -3.89107,1.42258 -18.61214,2.15825 -21.84622,1.09175 z M 743.04,616.47244 c -5.20834,-1.62787 -5.28399,-1.70483 -5.57372,-5.67113 l -0.29372,-4.02087 4.61372,2.04444 c 4.8436,2.14632 13.86971,2.84681 18.83413,1.46167 4.88007,-1.36161 6.45624,-9.17823 2.56147,-12.70295 -0.95494,-0.86421 -5.76952,-3.08303 -10.69907,-4.93073 -4.92954,-1.84769 -10.1577,-4.49389 -11.61812,-5.88043 -6.8811,-6.53301 -4.66562,-17.21778 4.57531,-22.06578 3.65882,-1.9195 13.88552,-2.09502 19.92,-0.3419 4.42627,1.28591 4.56,1.43372 4.56,5.04 0,2.04338 -0.16324,3.71524 -0.36276,3.71524 -0.19952,0 -2.01704,-0.6912 -4.03893,-1.536 -5.26804,-2.20113 -14.38215,-2.02731 -17.56079,0.33492 -2.7643,2.05431 -3.88063,7.14026 -2.0511,9.34472 0.59259,0.71402 5.12727,2.86741 10.07707,4.7853 4.9498,1.91789 10.11907,4.36761 11.48726,5.44383 5.38599,4.23663 7.17059,12.72182 3.97523,18.90097 -3.60384,6.96905 -16.63515,9.75767 -28.40598,6.0787 z M 187.2,593.76 v -23.52 h -9.12 -9.12 v -3.36 -3.36 h 22.08 22.08 v 3.36 3.36 H 204 194.88 v 23.52 23.52 h -3.84 -3.84 z m 62.10272,22.8 c -0.22583,-0.396 -0.87251,-2.232 -1.43708,-4.08 -1.60156,-5.24238 -14.78945,-46.41621 -15.29743,-47.76 -0.31662,-0.83756 0.72473,-1.2 3.44786,-1.2 h 3.90149 l 4.9015,15.6 c 2.69582,8.58 5.57547,17.76 6.39922,20.4 0.82375,2.64 1.78666,5.12044 2.13981,5.51209 0.35314,0.39164 2.08909,-4.14436 3.85765,-10.08 1.76856,-5.93565 4.68185,-15.43609 6.47398,-21.11209 l 3.25841,-10.32 h 3.19748 3.19748 l 2.94012,9.36 c 1.61707,5.148 4.56684,14.66425 6.55506,21.14723 2.02242,6.59451 3.90781,11.24659 4.27974,10.56 0.36565,-0.67498 3.39246,-10.19123 6.72626,-21.14723 l 6.06144,-19.92 h 3.64715 c 2.00593,0 3.65334,0.324 3.66091,0.72 0.008,0.396 -3.75508,12.492 -8.36146,26.88 l -8.37525,26.16 h -3.90516 -3.90517 l -6.14609,-19.69927 c -3.38036,-10.8346 -6.44727,-19.3666 -6.81537,-18.96 -0.36809,0.4066 -1.34485,2.89927 -2.17058,5.53927 -0.82572,2.64 -3.49358,11.172 -5.92858,18.96 l -4.42726,14.16 h -3.73277 c -2.05302,0 -3.91753,-0.324 -4.14336,-0.72 z m 80.41077,-0.49503 c -0.25644,-0.66826 -0.35088,-12.65626 -0.20987,-26.64 L 329.76,564 l 4.02388,-0.29246 4.02388,-0.29245 0.0822,26.93245 0.0822,26.93246 h -3.89617 c -2.25705,0 -4.09233,-0.51116 -4.36243,-1.21503 z M 364.8,590.4 v -26.88 h 4.25474 4.25474 L 388.25474,584.792 403.2,606.064 V 584.792 563.52 h 3.84 3.84 v 26.88 26.88 h -4.22492 -4.22492 L 387.69508,596.2933 372.96,575.30659 372.70163,596.2933 372.44327,617.28 H 368.62163 364.8 Z m 119.11547,1.18158 c -4.4465,-14.11387 -8.27272,-26.20158 -8.50271,-26.86158 -0.28949,-0.83072 0.77289,-1.2 3.45232,-1.2 3.78724,0 3.89965,0.0981 5.22563,4.56 5.85432,19.69962 11.70683,37.56544 12.16157,37.12529 0.30124,-0.29158 3.37105,-9.68206 6.82178,-20.86772 L 509.34812,564 l 3.35916,-0.28562 3.35916,-0.28563 6.07537,19.96563 c 3.34145,10.98109 6.38097,20.52939 6.7545,21.21844 0.54639,1.00795 8.14014,-21.66495 12.71809,-37.97282 0.80213,-2.8574 1.20069,-3.12 4.73542,-3.12 3.55723,0 3.80809,0.1692 3.2024,2.16 -0.36145,1.188 -4.06256,12.78203 -8.2247,25.76451 -4.16213,12.98248 -7.56752,24.10648 -7.56752,24.72 0,0.67916 -1.66063,1.11549 -4.24545,1.11549 h -4.24546 l -3.03514,-9.84 c -1.66933,-5.412 -4.40288,-14.26791 -6.07455,-19.6798 -1.67167,-5.41189 -3.28103,-9.83989 -3.57636,-9.84 -0.29533,-1.1e-4 -3.28322,8.8558 -6.63975,19.6798 l -6.10279,19.68 -3.92025,-0.0184 L 492,617.24316 Z M 572.16,590.4 v -26.88 h 3.84 3.84 v 26.88 26.88 H 576 572.16 Z m 99.52,26.24 c -0.352,-0.352 -0.64,-12.448 -0.64,-26.88 v -26.24 h 4.38714 4.38714 l -0.2357,11.99145 c -0.12963,6.59529 -0.004,12.2231 0.27911,12.50624 0.28313,0.28313 5.80807,-5.11302 12.27763,-11.99145 L 703.89816,563.52 h 4.79062 4.79062 l -11.1397,11.87349 c -6.12683,6.53042 -11.1397,12.19191 -11.1397,12.58108 0,0.38917 5.42412,7.14209 12.05361,15.0065 l 12.05361,14.29893 -4.61361,-0.002 -4.61361,-0.002 -10.192,-11.9353 -10.19199,-11.9353 -3.14344,3.24321 c -3.08954,3.18759 -3.14274,3.39229 -3.10232,11.93777 l 0.0411,8.69456 h -3.58568 c -1.97213,0 -3.87369,-0.288 -4.22569,-0.64 z M 414.40743,504.32743 C 414.05134,503.97134 413.76,479.64239 413.76,450.2631 v -53.41691 l 5.21592,-4.50309 c 2.86875,-2.47671 5.46075,-4.5031 5.76,-4.5031 0.29924,0 0.54408,23.76 0.54408,52.8 v 52.8 h 47.04 47.04 l 0.004,-124.56 c 0.004,-122.59798 0.0336,-124.60928 1.91122,-127.68877 1.0492,-1.72083 3.31559,-3.98722 5.03642,-5.03642 3.03745,-1.85195 4.95711,-1.90774 65.76877,-1.91122 l 62.64,-0.004 v 5.76 5.76 l -57.36,0.006 c -54.18772,0.006 -57.50893,0.10452 -60.05286,1.78186 -6.43474,4.24275 -5.89676,-6.77705 -6.42714,131.65181 l -0.48,125.28 -57.67257,0.24743 c -31.71992,0.13608 -57.96392,-0.0439 -58.32,-0.4 z M 293.0198,482.23748 c -0.67111,-0.27002 -1.85911,-1.72646 -2.64,-3.23654 -1.22726,-2.37326 -1.4198,-16.75361 -1.4198,-106.04117 V 269.66418 l 5.52,0.28791 5.52,0.28791 0.48,92.48499 0.48,92.48498 2.26635,1.83502 c 1.2465,1.00925 3.63155,1.83501 5.30013,1.83501 3.10141,0 3.73266,-0.52187 138.35352,-114.37963 20.86719,-17.64877 23.86532,-19.36868 29.70884,-17.04277 1.85493,0.73832 10.48382,7.3904 19.17531,14.7824 l 15.80269,13.44 0.0566,7.55755 c 0.0529,7.06264 -0.0534,7.47141 -1.62342,6.24217 -0.924,-0.72345 -7.512,-6.29817 -14.64,-12.38827 -18.15305,-15.5098 -17.89889,-15.33662 -22.44946,-15.29743 -5.11374,0.044 -5.94911,0.56246 -19.44769,12.06913 -16.39446,13.97524 -60.28095,51.06177 -80.98285,68.43503 -9.768,8.19742 -22.944,19.31998 -29.28,24.71681 -41.85361,35.64974 -42.06846,35.81824 -45.6,35.76453 -1.848,-0.0281 -3.90909,-0.27202 -4.5802,-0.54204 z m 343.75483,-4.8755 C 633.18058,474.32707 615.336,459.15803 597.12,443.65301 578.904,428.14798 562.65208,414.32309 561.00463,412.93102 559.35717,411.53896 553.41866,406.512 547.80792,401.76 l -10.20133,-8.64 -0.003,-7.53499 -0.003,-7.53498 5.52,4.73354 c 8.91277,7.64293 82.99576,70.56843 86.48119,73.45643 3.74348,3.10182 7.65719,3.39212 10.85246,0.80499 l 2.26635,-1.83502 0.48,-92.48498 0.48,-92.48499 5.52,-0.28791 5.52,-0.28791 v 104.25155 104.25154 l -2.35636,2.35637 c -4.0636,4.06359 -7.97111,3.2711 -15.58901,-3.16166 z M 413.5432,307.6955 413.28,253.47099 409.66445,249.8555 406.04889,246.24 347.98445,245.97821 289.92,245.71641 v -5.7382 -5.73821 l 62.64,0.004 c 60.81166,0.003 62.73132,0.0593 65.76877,1.91122 1.72083,1.0492 3.98722,3.31559 5.03642,5.03642 1.84415,3.02465 1.90775,4.93935 1.91122,57.53432 l 0.004,54.40556 -5.02351,4.39444 c -2.76293,2.41695 -5.34449,4.39445 -5.73681,4.39445 -0.39231,0 -0.83173,-24.40103 -0.97648,-54.2245 z m -59.5744,-89.80724 c -7.62934,-1.91453 -13.64478,-7.0551 -18.16722,-15.525 -1.95118,-3.6543 -2.19782,-5.43349 -2.16854,-15.64326 0.0418,-14.56982 1.18627,-17.46234 15.1227,-38.2208 10.4487,-15.56345 13.61263,-22.09128 14.90499,-30.75202 l 0.73822,-4.94718 1.88052,4.8 c 1.49462,3.81498 1.87032,7.06554 1.83079,15.84 -0.0596,13.2334 -1.05083,15.86756 -12.42496,33.01941 -8.45999,12.75741 -11.0453,18.74517 -11.0453,25.58172 0,6.06298 1.78019,10.38276 5.60508,13.6012 8.79718,7.40234 20.31136,5.4005 25.03253,-4.35213 2.8511,-5.88959 2.575,-10.8153 -0.98401,-17.55492 -1.64252,-3.1104 -3.90469,-7.38328 -5.02704,-9.49528 -2.26482,-4.26184 -3.32091,-15.63543 -1.82049,-19.60572 0.77398,-2.04805 1.01414,-1.63841 2.01147,3.4309 0.6229,3.16615 2.31378,7.50027 3.7575,9.63139 1.44373,2.13112 4.4578,6.58929 6.69793,9.90705 2.24013,3.31776 4.50572,7.59021 5.03464,9.49433 3.34941,12.05786 -2.24612,24.97398 -12.71347,29.34646 -4.58198,1.914 -13.56279,2.62393 -18.26534,1.44385 z m 223.76228,-0.29476 c -10.85209,-3.05844 -16.27276,-10.18352 -16.91497,-22.2335 -0.32703,-6.13635 -0.0747,-7.26196 2.90528,-12.96 1.79488,-3.432 4.87757,-8.34833 6.85043,-10.92517 4.62239,-6.03753 6.36923,-10.31436 6.46649,-15.83207 l 0.0783,-4.44276 1.46836,3.36 c 1.02096,2.33625 1.33287,5.26125 1.02368,9.6 -0.43966,6.16958 -0.72308,6.87417 -8.23012,20.45978 -4.7103,8.5243 -1.09767,20.8497 7.11717,24.28208 5.68541,2.37552 13.18935,1.01746 18.00474,-3.25847 2.89441,-2.57017 5.37535,-8.89499 5.39847,-13.76269 0.0319,-6.72144 -2.13642,-11.60477 -11.45268,-25.79269 C 580.09397,150.32233 577.92,144.50105 577.92,132.5463 c 0,-6.58768 0.50241,-9.95123 2.11959,-14.19029 l 2.11959,-5.55601 0.74083,5.76 c 0.96526,7.50494 6.30401,18.23715 15.66245,31.48541 12.11525,17.15094 15.48176,26.32987 14.67164,40.00283 -0.95736,16.1581 -10.74189,27.12349 -25.28726,28.33907 -3.33242,0.2785 -7.58284,-0.0518 -10.21576,-0.79381 z M 334.727,212.29271 c -5.37367,-4.27045 -10.26633,-10.58972 -13.46884,-17.3961 -2.36959,-5.03615 -3.00365,-7.80125 -3.32365,-14.49435 -0.65424,-13.68418 3.2114,-22.77531 16.39176,-38.54981 18.64118,-22.31008 20.92097,-31.71708 12.37098,-51.045753 -1.14429,-2.586875 -1.93202,-4.851932 -1.75049,-5.033459 0.62235,-0.622349 6.49611,8.255756 8.81926,13.330186 3.28032,7.165146 3.9267,14.289226 1.98627,21.891426 -1.90483,7.46273 -5.54234,13.72275 -14.40098,24.78362 -14.48074,18.0806 -17.32046,24.45939 -16.69672,37.50546 0.33975,7.10619 0.90744,9.41722 3.806,15.494 1.87368,3.92814 4.9817,9.19407 6.90671,11.70207 1.92501,2.508 3.34627,4.56 3.15836,4.56 -0.18791,0 -1.89731,-1.23628 -3.79866,-2.74729 z m 276.51319,-2.10344 c 8.18326,-10.94945 11.369,-20.5977 10.62566,-32.18061 -0.6079,-9.47237 -3.93933,-16.01561 -15.60446,-30.64866 -11.22182,-14.07693 -15.67584,-22.52296 -16.48285,-31.25593 -0.89578,-9.69356 2.70924,-20.093969 9.79698,-28.26407 2.76044,-3.181986 2.68547,-2.785128 -1.17871,6.24 -2.2525,5.260897 -2.67525,7.59568 -2.69426,14.88 -0.029,11.1258 1.81718,14.99563 14.88486,31.2 14.49763,17.97756 18.21259,25.71239 18.21259,37.92 0,13.18443 -7.4772,27.37621 -18.59444,35.29239 -2.728,1.9425 -2.67559,1.78127 1.03463,-3.18312 z"
       id="path1" />
  </g>
</svg>
